<?xml version="1.0" standalone="no"?>
<!DOCTYPE svg PUBLIC "-//W3C//DTD SVG 20010904//EN"
 "http://www.w3.org/TR/2001/REC-SVG-20010904/DTD/svg10.dtd">
<svg version="1.0" xmlns="http://www.w3.org/2000/svg"
 width="2476.000000pt" height="2476.000000pt" viewBox="0 0 2476.000000 2476.000000"
 preserveAspectRatio="xMidYMid meet">
<metadata>
Created by potrace 1.14, written by Peter Selinger 2001-2017
</metadata>
<g transform="translate(0.000000,2476.000000) scale(0.100000,-0.100000)"
fill="#000000" stroke="none">
<path d="M1767 22843 c-2 -1 -31 -4 -66 -7 -289 -25 -600 -133 -846 -295 -356
-234 -627 -584 -759 -982 -37 -113 -73 -273 -84 -379 -16 -147 -6 -437 18
-544 5 -22 11 -52 13 -66 46 -250 200 -567 386 -794 61 -74 194 -208 246 -248
17 -12 38 -30 48 -39 33 -30 179 -125 264 -172 147 -81 362 -160 512 -187 31
-5 67 -12 80 -15 134 -26 463 -26 591 0 13 2 41 7 62 10 57 9 244 63 318 92
198 78 393 195 554 332 72 61 201 201 267 287 40 52 77 94 83 94 6 0 20 -6 31
-14 11 -7 40 -24 65 -38 25 -14 119 -68 210 -120 91 -52 192 -110 226 -129 72
-40 742 -426 764 -440 12 -7 198 -113 315 -179 17 -9 50 -28 75 -42 25 -14
194 -111 375 -215 182 -104 357 -205 390 -223 33 -18 65 -36 70 -40 6 -4 33
-20 60 -36 28 -15 64 -36 80 -46 17 -10 37 -21 45 -25 8 -4 38 -20 65 -36 28
-17 68 -40 90 -52 239 -136 572 -328 579 -335 4 -4 -2 -14 -15 -20 -49 -26
-329 -217 -444 -303 -110 -83 -298 -233 -370 -298 -16 -14 -55 -48 -85 -75
-80 -70 -407 -399 -465 -468 -27 -32 -63 -75 -80 -94 -197 -228 -450 -613
-587 -892 -85 -174 -177 -402 -217 -540 -13 -41 -26 -86 -31 -100 -13 -36 -46
-165 -61 -235 -7 -33 -14 -64 -15 -70 -3 -11 -33 -176 -39 -215 -2 -14 -7 -52
-11 -85 -3 -33 -8 -69 -10 -79 -27 -142 -26 -748 2 -965 2 -19 6 -57 9 -85 2
-28 7 -68 10 -88 5 -41 10 -76 25 -178 18 -127 21 -145 25 -157 6 -18 -5 -16
-26 3 -26 24 -87 26 -108 5 -17 -17 -19 -17 -41 1 -29 23 -61 23 -91 -1 -24
-19 -25 -19 -48 0 -30 24 -62 24 -92 0 -19 -16 -25 -16 -37 -5 -24 24 -62 28
-94 10 -27 -16 -31 -16 -53 -2 -33 22 -68 20 -90 -4 -17 -19 -18 -19 -43 0
-13 11 -37 20 -52 20 -15 0 -35 -9 -45 -20 -17 -19 -18 -19 -43 0 -31 25 -63
25 -93 1 -20 -16 -25 -17 -34 -5 -5 8 -26 17 -46 20 -28 5 -41 2 -56 -13 -19
-19 -20 -19 -43 -1 -29 23 -61 23 -91 -1 -24 -19 -25 -19 -48 0 -30 25 -62 24
-95 -2 -14 -11 -26 -16 -26 -11 0 11 -45 32 -70 32 -11 0 -28 -8 -39 -19 -18
-18 -19 -18 -42 0 -31 24 -71 24 -94 -1 -17 -19 -18 -19 -43 0 -32 25 -74 25
-97 0 -17 -19 -18 -19 -43 0 -31 25 -63 25 -93 1 -20 -16 -25 -17 -34 -5 -5 8
-27 17 -47 20 -29 5 -40 2 -54 -14 -17 -21 -18 -21 -42 -1 -33 26 -74 24 -99
-3 -30 -34 -34 -56 -17 -90 13 -26 14 -35 2 -62 -17 -41 -17 -46 0 -79 12 -25
11 -33 -1 -59 -14 -29 -13 -50 8 -100 11 -29 -4 -42 -26 -22 -29 26 -87 23
-110 -5 -23 -28 -25 -84 -4 -101 11 -9 12 -17 4 -31 -10 -19 -10 -19 -31 1
-66 61 -154 -21 -112 -103 14 -26 14 -31 0 -46 -17 -18 -14 -74 5 -97 9 -11 7
-20 -5 -39 -18 -28 -16 -76 4 -100 9 -10 8 -19 -4 -37 -17 -26 -14 -87 6 -99
10 -6 9 -15 -5 -39 -19 -32 -16 -88 7 -102 8 -5 6 -16 -6 -36 -18 -31 -18 -73
2 -97 10 -12 9 -20 -4 -40 -20 -30 -20 -52 -1 -89 12 -22 12 -32 4 -43 -19
-22 -19 -65 -1 -95 14 -24 14 -29 1 -45 -20 -23 -22 -62 -4 -90 12 -18 12 -25
-1 -51 -15 -32 -13 -74 6 -97 7 -8 12 -43 11 -78 l0 -64 459 0 c420 -1 460 1
461 16 0 9 0 255 1 546 l1 530 685 5 685 5 0 165 c-1 91 -2 173 -2 183 -1 14
-11 17 -56 17 -42 0 -61 5 -77 20 -27 25 -69 26 -98 2 -23 -18 -24 -18 -42 0
-24 24 -73 23 -97 -1 -19 -19 -20 -19 -37 0 -23 25 -79 25 -101 0 -16 -19 -16
-19 -36 0 -27 25 -79 25 -101 0 -18 -20 -18 -20 -39 0 -26 24 -68 24 -97 1
-23 -18 -24 -18 -42 0 -23 23 -73 23 -96 0 -18 -18 -19 -18 -42 0 -28 22 -68
23 -91 2 -32 -29 -44 -12 -43 62 1 38 2 74 3 80 1 9 181 12 671 12 l670 0 11
-42 c6 -22 13 -50 15 -61 2 -11 20 -81 39 -155 20 -74 37 -142 39 -150 6 -22
42 -146 66 -225 14 -46 19 -83 15 -109 -4 -26 -1 -46 10 -62 12 -19 13 -29 4
-45 -20 -38 -22 -79 -5 -98 15 -16 15 -21 1 -47 -19 -37 -19 -59 1 -89 13 -19
14 -28 5 -39 -20 -24 -22 -79 -4 -99 16 -17 16 -20 0 -46 -21 -36 -21 -60 -1
-89 14 -20 14 -24 0 -44 -21 -29 -20 -62 1 -94 10 -16 16 -48 17 -87 l1 -62
153 -1 c84 -1 154 -3 156 -5 2 -2 34 -80 70 -174 37 -93 71 -179 76 -190 5
-11 50 -117 99 -235 49 -118 99 -237 110 -263 18 -41 19 -49 5 -54 -8 -3 -23
2 -33 11 -23 21 -55 20 -91 -1 -26 -15 -29 -15 -45 0 -21 21 -59 22 -90 1 -22
-14 -26 -14 -47 0 -27 19 -48 20 -83 4 -38 -17 -48 -66 -23 -115 8 -17 8 -26
-1 -37 -18 -22 -16 -84 3 -105 14 -16 14 -19 0 -33 -18 -18 -22 -90 -5 -96 13
-4 15 -42 2 -42 -5 0 -22 7 -37 15 -39 20 -56 19 -88 -6 -30 -23 -35 -71 -12
-105 9 -12 11 -26 6 -34 -7 -11 -13 -11 -34 3 -59 39 -121 7 -121 -64 0 -25 6
-44 13 -47 15 -5 16 -29 1 -34 -18 -6 -20 -80 -3 -99 12 -14 12 -20 -1 -45
-19 -37 -19 -64 1 -92 12 -17 13 -26 5 -36 -19 -23 -21 -77 -5 -102 14 -21 14
-25 0 -46 -20 -28 -20 -57 -1 -86 14 -19 14 -24 0 -51 -19 -38 -19 -61 0 -88
13 -19 13 -24 0 -50 -19 -36 -19 -63 0 -90 13 -19 13 -24 0 -50 -19 -36 -19
-53 0 -81 14 -19 14 -24 0 -51 -19 -38 -19 -61 1 -89 12 -17 13 -26 5 -36 -19
-23 -21 -77 -4 -103 10 -15 17 -47 17 -82 l1 -56 839 -1 c815 -1 839 -1 853
-20 8 -10 32 -53 55 -94 55 -101 277 -483 346 -595 30 -49 64 -106 74 -125 11
-19 35 -57 53 -85 18 -27 45 -72 61 -98 16 -27 36 -59 44 -72 8 -13 33 -52 54
-87 39 -62 173 -269 285 -438 114 -174 406 -596 556 -804 73 -100 445 -598
459 -612 6 -6 36 -44 66 -84 30 -40 78 -100 105 -134 28 -34 64 -79 80 -101
25 -31 132 -163 203 -250 82 -98 323 -384 371 -440 34 -38 61 -73 61 -77 0 -7
-18 -32 -45 -62 -6 -6 -30 -41 -53 -78 -146 -233 -211 -524 -179 -798 34 -286
168 -550 382 -751 69 -65 151 -129 165 -129 6 0 10 -4 10 -9 0 -23 293 -148
387 -166 15 -3 39 -7 53 -10 230 -47 520 -10 750 96 102 47 253 153 334 234
l74 73 28 -17 c130 -76 413 -183 574 -217 186 -38 425 -51 570 -30 290 43 528
130 770 284 110 70 466 308 487 327 7 5 36 26 64 45 42 29 136 99 359 265 117
88 345 284 505 435 53 50 373 377 454 465 36 39 92 99 126 135 33 36 91 99
128 142 66 74 69 76 100 67 102 -29 312 -54 457 -53 75 0 250 13 260 19 3 1
28 6 55 9 139 19 359 93 520 175 371 191 664 490 840 856 99 208 147 375 180
635 6 46 6 310 0 365 -4 39 -16 125 -21 150 -6 28 -18 89 -19 95 -1 3 -5 19
-9 35 -14 53 -47 159 -61 190 -7 17 -16 41 -20 55 -9 29 -91 193 -133 264
l-28 48 82 137 c44 75 100 170 123 211 23 41 46 82 51 90 24 38 87 151 225
404 l70 130 600 0 600 1 -2 66 -2 66 52 1 c29 0 60 1 69 1 14 1 18 13 20 68
l3 68 65 0 65 0 1 323 c1 287 -1 322 -15 323 -9 1 -38 2 -66 3 l-50 1 -3 67
-3 67 -67 3 -67 3 -2 55 c-1 30 -2 60 -2 66 -1 7 -21 11 -52 10 -29 -1 -67 6
-87 15 -37 17 -76 16 -99 -3 -9 -7 -23 -6 -47 6 -32 15 -38 15 -76 0 -29 -12
-44 -14 -49 -6 -11 18 -57 21 -86 6 -34 -17 -37 -17 -60 0 -18 13 -17 16 15
85 20 42 40 71 49 72 9 0 124 0 256 0 l240 0 -1 178 c0 98 -4 183 -7 188 -4 6
-28 10 -54 8 -70 -4 -73 -1 -73 65 0 34 -5 62 -11 66 -7 4 -36 7 -65 6 -30 0
-56 3 -58 7 -3 4 2 20 9 36 8 17 26 59 41 95 15 36 34 81 42 100 9 19 16 37
17 40 1 3 6 16 12 30 72 171 194 483 192 490 -1 3 7 23 18 45 12 22 21 42 21
45 0 3 5 16 10 30 5 14 18 51 28 82 20 62 18 61 104 59 l46 0 1 192 c1 185 2
196 32 287 43 137 102 330 111 365 6 27 8 28 15 10 5 -11 13 -23 19 -27 7 -5
5 -17 -7 -37 -21 -36 -22 -60 -1 -89 14 -20 14 -24 0 -44 -20 -28 -20 -55 -1
-92 11 -20 12 -32 5 -41 -18 -22 -20 -78 -4 -96 9 -11 16 -41 17 -85 l2 -69
55 -1 c30 -1 60 -2 67 -3 7 -1 11 -22 10 -62 -2 -71 3 -76 81 -73 28 1 53 -1
53 -4 1 -4 3 -32 4 -62 1 -30 3 -58 4 -61 0 -3 516 -6 1145 -6 l1144 0 0 598
0 598 -58 -1 c-42 -1 -62 3 -75 15 -9 9 -22 17 -28 18 -7 0 -20 2 -29 4 -10 2
-29 -6 -43 -17 -24 -18 -27 -19 -38 -4 -18 24 -73 27 -100 6 -21 -17 -23 -17
-45 0 -27 22 -81 19 -99 -6 -10 -14 -14 -14 -40 5 -15 11 -37 19 -48 16 -11
-2 -23 -4 -27 -4 -4 -1 -14 -8 -23 -17 -15 -15 -17 -15 -28 0 -18 25 -72 28
-99 6 -21 -17 -24 -17 -41 -3 -23 21 -82 21 -106 -1 -13 -12 -21 -14 -26 -6
-16 26 -57 31 -95 12 -35 -17 -39 -17 -58 -2 -33 27 -92 14 -110 -25 -12 -26
-9 -58 10 -93 8 -16 9 -25 1 -30 -21 -14 -24 -51 -7 -88 12 -24 17 -58 16 -96
-1 -39 2 -58 11 -59 6 -1 66 -3 132 -4 66 -1 124 -3 128 -4 5 0 1 -11 -7 -23
-20 -28 -20 -77 -1 -101 12 -16 11 -23 -5 -49 -19 -31 -17 -62 6 -88 11 -13
10 -20 -5 -44 -19 -29 -16 -71 9 -101 17 -21 -11 -37 -34 -19 -26 18 -71 18
-100 -1 -21 -14 -24 -14 -36 0 -16 20 -79 19 -101 -1 -16 -14 -20 -14 -45 3
-31 20 -56 19 -91 -4 -20 -13 -24 -13 -38 1 -21 20 -69 21 -99 1 -21 -14 -24
-14 -36 0 -16 20 -70 19 -99 -1 -17 -12 -25 -14 -30 -5 -4 7 -8 230 -8 496 l0
485 51 1 c28 1 59 1 69 0 15 -2 17 7 17 68 l0 71 68 0 68 0 0 68 -1 67 158 2
157 1 0 -69 0 -69 71 0 71 0 -2 -27 c-1 -16 -2 -47 -1 -70 l1 -43 459 2 459 1
-1 186 -2 186 -57 0 c-31 0 -61 5 -67 10 -5 6 -11 37 -13 70 l-3 59 -52 -1
c-64 -2 -85 14 -83 66 4 73 5 71 -56 71 -41 0 -63 5 -81 20 -33 26 -63 25 -97
-1 -14 -11 -26 -16 -26 -11 0 11 -45 32 -68 32 -9 0 -28 -9 -41 -19 -23 -18
-24 -18 -42 0 -25 25 -71 24 -94 -1 -17 -19 -18 -19 -43 0 -32 26 -63 25 -96
-1 -22 -18 -27 -18 -32 -5 -10 26 -69 31 -102 8 -24 -18 -29 -18 -38 -6 -5 8
-25 17 -45 20 -28 5 -41 2 -56 -13 -19 -19 -20 -19 -43 -1 -29 23 -61 23 -91
-1 -24 -19 -25 -19 -48 0 -30 25 -62 24 -95 -2 -14 -11 -26 -16 -26 -11 0 11
-45 32 -68 32 -9 0 -28 -9 -41 -19 -23 -18 -24 -18 -42 0 -25 25 -71 24 -94
-1 -17 -19 -18 -19 -43 0 -32 26 -74 25 -98 -1 -17 -18 -19 -19 -30 -4 -7 9
-28 18 -47 22 -29 4 -40 1 -61 -20 -29 -30 -35 -77 -11 -101 31 -30 9 -57 -27
-32 -31 22 -81 20 -102 -3 -23 -25 -27 -71 -9 -99 8 -13 12 -30 9 -39 -5 -12
-11 -12 -38 5 -49 29 -88 20 -113 -28 -14 -28 -14 -33 1 -65 9 -19 14 -42 10
-50 -5 -14 -10 -13 -35 6 -18 13 -38 20 -50 16 -12 -3 -21 -4 -21 -4 0 1 7 38
16 82 8 44 17 91 20 105 4 25 10 51 19 100 10 47 44 255 51 305 3 28 8 58 9
67 3 15 10 76 21 183 17 170 24 324 24 520 -1 167 -3 230 -16 390 -11 132 -10
129 -35 287 -6 37 -12 78 -14 90 -1 13 -10 59 -19 103 -88 421 -236 815 -439
1175 -54 95 -242 386 -281 435 -9 11 -37 47 -62 80 -57 74 -96 124 -109 139
-50 58 -52 49 22 97 37 24 70 47 71 51 2 5 7 8 12 8 5 0 82 49 172 108 232
155 371 246 383 252 6 3 125 81 265 173 451 298 433 287 447 275 7 -6 13 -15
13 -20 0 -26 188 -257 304 -374 141 -141 243 -224 403 -328 92 -59 330 -186
350 -186 4 0 19 -6 33 -13 45 -24 277 -99 340 -111 14 -3 57 -12 96 -20 139
-30 305 -44 499 -41 105 2 206 6 225 9 19 3 55 8 80 11 25 3 52 8 60 10 8 2
33 6 54 10 91 13 246 58 388 111 80 30 287 128 333 157 73 46 221 142 230 148
328 255 551 522 720 864 106 214 198 501 220 685 2 25 7 61 10 80 3 19 7 55
10 80 7 53 7 352 1 395 -2 17 -7 64 -11 105 -4 41 -9 77 -10 80 -2 3 -6 26
-10 50 -32 219 -180 619 -287 772 -10 14 -18 29 -18 32 0 8 -93 147 -134 201
-118 154 -330 368 -441 447 -5 4 -23 18 -40 31 -271 211 -722 400 -1054 442
-30 4 -62 8 -71 10 -76 15 -414 23 -485 11 -16 -2 -57 -7 -90 -11 -379 -41
-774 -193 -1090 -419 -496 -355 -838 -878 -954 -1463 -17 -81 -34 -188 -39
-238 -9 -89 -8 -460 1 -501 3 -12 8 -45 12 -75 22 -186 113 -495 191 -651 13
-26 24 -51 24 -57 0 -5 -99 -82 -221 -172 -122 -90 -229 -171 -239 -179 -11
-8 -83 -62 -161 -120 -78 -58 -279 -207 -447 -332 l-305 -227 -186 188 c-190
192 -305 299 -421 391 -36 29 -67 55 -70 59 -23 32 -408 302 -630 443 -218
138 -688 385 -955 502 -109 48 -471 196 -490 201 -5 1 -23 7 -38 14 -157 64
-826 265 -983 295 -11 2 -39 9 -64 16 -25 7 -56 14 -70 17 -14 2 -61 12 -105
23 -44 10 -141 30 -215 44 -74 14 -157 30 -185 36 -57 11 -266 45 -338 55 -27
4 -57 8 -66 10 -10 2 -42 6 -72 9 -30 3 -63 8 -74 10 -11 2 -47 7 -80 10 -33
4 -67 9 -75 11 -8 2 -46 6 -85 10 -38 3 -83 8 -100 10 -36 5 -117 12 -205 20
-36 3 -83 8 -105 10 -22 2 -80 7 -130 10 -49 4 -108 8 -130 10 -22 2 -96 6
-165 10 -69 4 -152 8 -185 10 -414 25 -1203 25 -1400 1 -16 -2 -66 -7 -110
-11 -44 -3 -96 -8 -115 -10 -19 -2 -60 -7 -90 -10 -30 -3 -66 -8 -80 -10 -14
-2 -54 -7 -89 -10 -36 -3 -67 -8 -70 -10 -4 -2 -31 -6 -61 -9 -30 -4 -66 -8
-80 -11 -29 -5 -156 -25 -185 -30 -100 -14 -538 -98 -605 -115 -19 -5 -50 -12
-69 -15 -19 -3 -37 -8 -41 -10 -4 -2 -22 -7 -41 -10 -69 -12 -408 -98 -609
-155 -564 -161 -1097 -366 -1555 -600 -182 -93 -281 -147 -317 -172 -14 -10
-29 -18 -32 -18 -3 0 -36 -19 -73 -42 -38 -22 -73 -41 -78 -41 -6 0 -52 27
-103 61 -52 34 -95 62 -97 62 -3 0 -30 18 -62 39 -127 86 -215 141 -223 141
-5 0 -10 3 -12 8 -1 4 -91 64 -198 132 -107 69 -230 147 -272 175 -42 27 -152
99 -245 158 -276 178 -359 232 -501 324 -75 48 -171 111 -214 138 -43 28 -179
115 -303 195 -124 80 -288 186 -365 235 -277 178 -545 351 -654 422 -61 40
-115 74 -120 76 -5 2 -1 17 7 34 16 29 22 46 68 173 21 58 65 224 73 275 24
152 26 171 26 326 0 126 -3 191 -15 264 -2 17 -7 48 -10 70 -21 146 -113 410
-197 564 -37 69 -154 249 -169 261 -3 3 -29 32 -56 65 -275 332 -704 571
-1148 639 -95 15 -379 29 -388 19z m17884 -10926 c-10 -9 -11 -8 -5 6 3 10 9
15 12 12 3 -3 0 -11 -7 -18z m-13891 -2396 c0 -20 341 -716 475 -970 66 -127
74 -144 53 -123 -16 16 -70 15 -93 -2 -17 -12 -24 -11 -53 4 -35 19 -67 15
-100 -12 -10 -9 -15 -9 -20 0 -16 25 -59 31 -95 13 -21 -11 -40 -14 -45 -9 -4
4 -23 12 -40 17 -25 8 -36 6 -58 -11 -20 -16 -28 -18 -34 -8 -11 17 -10 1121
1 1114 5 -3 9 -9 9 -13z m12788 -665 c9 -6 9 -12 -3 -29 -20 -28 -19 -71 1
-102 14 -22 14 -25 1 -31 -9 -3 -26 1 -39 10 -71 46 -151 -42 -102 -113 22
-31 4 -49 -27 -27 -27 19 -62 21 -91 5 -21 -11 -21 -11 -2 17 11 16 46 83 79
149 33 66 63 123 67 126 11 8 101 4 116 -5z m-293 -376 c-3 -4 2 -13 10 -20 8
-7 15 -18 15 -25 0 -21 -27 -25 -44 -6 -14 15 -15 23 -5 44 7 15 16 24 21 21
4 -3 6 -9 3 -14z"/>
<path d="M12017 20784 c-1 -1 -92 -5 -202 -8 -211 -7 -257 -12 -290 -28 -46
-24 -86 -61 -105 -98 -20 -39 -23 -53 -35 -150 -4 -30 -9 -62 -10 -70 -2 -8
-6 -40 -9 -71 -4 -31 -8 -65 -10 -75 -2 -11 -7 -48 -11 -84 -3 -36 -8 -76 -10
-90 -2 -14 -9 -70 -15 -125 -6 -55 -13 -116 -15 -135 -43 -330 -39 -377 35
-426 42 -28 56 -29 200 -19 237 17 908 25 1006 12 l32 -4 21 106 c12 58 25
120 28 136 14 69 11 80 -27 83 -70 5 -718 5 -830 0 -150 -8 -154 -6 -146 81 3
36 8 75 10 86 3 18 6 40 22 160 2 22 7 51 9 65 2 14 7 45 10 70 3 25 8 56 10
70 2 14 7 45 10 69 9 61 21 88 46 101 44 24 613 28 1012 6 26 -1 47 2 47 7 0
4 6 5 13 0 16 -10 26 -11 147 -18 165 -8 321 -22 352 -31 9 -3 20 -13 23 -24
3 -10 -21 -117 -54 -237 -64 -232 -89 -327 -96 -356 -2 -10 -7 -27 -10 -37 -3
-10 -7 -27 -9 -37 -2 -10 -16 -65 -31 -123 -15 -58 -29 -114 -32 -125 -12 -49
-15 -75 -7 -76 22 -3 55 -7 129 -13 44 -4 101 -9 126 -12 l46 -6 43 154 c23
84 62 223 87 308 24 85 46 162 48 170 26 107 101 330 118 348 20 22 28 23 92
18 39 -3 81 -8 95 -11 14 -3 45 -7 70 -10 25 -3 60 -8 78 -11 17 -3 47 -7 65
-9 17 -3 54 -9 82 -14 57 -11 58 -10 79 59 8 25 30 89 50 143 19 53 32 97 28
98 -4 0 -16 2 -27 4 -11 2 -40 7 -65 10 -25 3 -90 12 -145 20 -55 8 -158 22
-230 30 -71 9 -141 18 -155 20 -14 2 -52 6 -85 10 -33 3 -78 8 -100 10 -108
12 -135 15 -200 20 -38 3 -86 7 -105 10 -42 5 -133 12 -252 20 -78 6 -87 4
-91 -12 -4 -15 -5 -15 -6 3 -1 15 -8 21 -28 21 -16 0 -125 4 -243 8 -190 6
-579 12 -583 9z m845 -106 c-6 -6 -7 0 -4 19 5 21 7 23 10 9 2 -10 0 -22 -6
-28z m-10 -50 c-8 -8 -9 -4 -5 13 4 13 8 18 11 10 2 -7 -1 -18 -6 -23z m-15
-70 c-3 -7 -5 -2 -5 12 0 14 2 19 5 13 2 -7 2 -19 0 -25z m-10 -40 c-3 -8 -6
-5 -6 6 -1 11 2 17 5 13 3 -3 4 -12 1 -19z m-10 -40 c-3 -8 -6 -5 -6 6 -1 11
2 17 5 13 3 -3 4 -12 1 -19z"/>
<path d="M10688 20695 c-2 -2 -30 -6 -63 -10 -33 -3 -69 -8 -80 -9 -11 -2 -48
-7 -81 -11 -71 -8 -58 10 -141 -195 -30 -74 -60 -148 -67 -165 -7 -16 -44
-111 -80 -210 -37 -99 -71 -189 -76 -200 -16 -36 -157 -448 -185 -540 -15 -49
-34 -109 -41 -132 l-12 -41 31 9 c18 5 70 16 117 24 47 8 96 17 110 20 14 4
41 8 60 11 18 3 35 6 36 7 0 1 19 49 40 106 30 81 44 105 59 107 11 2 38 5 60
9 22 3 49 7 60 9 11 2 43 7 70 10 28 4 64 9 80 11 17 3 46 7 65 9 19 2 56 7
81 11 l47 7 27 -84 c30 -91 40 -109 58 -103 7 2 39 6 72 9 209 20 247 25 251
29 8 8 -140 482 -335 1077 l-77 235 -42 1 c-23 1 -43 0 -44 -1z m-68 -698 c28
-82 50 -150 48 -152 -3 -3 -102 -18 -207 -32 -40 -5 -43 -4 -37 13 77 200 132
332 138 326 4 -4 30 -74 58 -155z"/>
<path d="M14373 20553 c-8 -21 -16 -42 -18 -48 -1 -5 -5 -17 -8 -25 -3 -8 -33
-94 -67 -190 -34 -96 -67 -191 -75 -210 -25 -61 -264 -784 -261 -787 4 -4 36
-11 91 -18 22 -3 75 -12 119 -20 43 -8 82 -15 87 -15 12 0 13 2 125 315 52
149 141 389 196 535 55 146 115 304 133 352 l32 86 -31 7 c-34 7 -298 55 -303
55 -2 0 -11 -17 -20 -37z"/>
<path d="M9789 20556 c-2 -2 -22 -7 -43 -10 -32 -5 -242 -48 -296 -61 -8 -2
-49 -11 -90 -20 -41 -9 -82 -18 -90 -20 -27 -6 -155 -37 -170 -40 -32 -7 -321
-85 -423 -114 -132 -38 -155 -49 -197 -97 -55 -64 -63 -94 -56 -220 4 -62 9
-125 11 -140 2 -16 6 -65 10 -109 9 -115 14 -174 20 -225 7 -68 13 -128 20
-205 4 -38 8 -81 11 -95 2 -14 6 -54 10 -90 11 -128 19 -152 64 -195 27 -26
38 -30 88 -29 31 0 64 3 72 5 258 84 704 207 850 234 41 8 96 20 227 50 21 5
22 8 20 166 l-2 160 -35 -4 c-19 -3 -60 -10 -90 -17 -30 -6 -66 -13 -80 -16
-14 -2 -99 -22 -190 -45 -91 -22 -174 -42 -185 -44 -11 -3 -101 -27 -199 -55
-99 -27 -190 -50 -202 -50 -27 0 -32 13 -40 100 -3 36 -6 69 -7 73 -3 15 533
161 743 202 l85 17 -1 159 c0 87 -3 161 -6 165 -12 11 -575 -124 -793 -190
-27 -8 -50 -14 -51 -13 -1 1 -5 36 -8 78 -10 126 -19 121 394 226 118 30 229
57 245 59 17 3 44 9 60 14 17 5 91 21 165 36 74 14 142 28 150 29 8 2 22 4 31
4 15 1 17 20 18 157 1 86 4 160 7 165 5 9 -38 13 -47 5z"/>
<path d="M14849 20259 c0 -211 -4 -530 -12 -1019 l-2 -124 35 -8 c19 -5 46
-11 58 -14 13 -2 49 -12 80 -20 95 -26 126 -34 143 -34 9 0 148 132 310 293
332 331 467 457 711 669 l118 102 -28 12 c-15 7 -99 35 -186 63 l-160 50 -45
-41 c-161 -145 -310 -287 -476 -454 l-191 -191 2 56 c1 31 5 133 8 226 4 94 9
265 11 381 l5 211 -143 32 c-78 18 -149 34 -157 36 -8 2 -30 7 -47 11 l-33 7
-1 -244z"/>
<path d="M7953 20060 c-320 -110 -549 -198 -708 -269 -33 -15 -87 -38 -120
-51 -84 -34 -135 -69 -166 -115 -44 -65 -49 -114 -23 -246 13 -63 25 -127 28
-144 6 -35 36 -179 66 -315 12 -52 23 -106 26 -120 10 -50 104 -466 111 -492
l8 -27 94 45 c52 25 117 55 145 66 28 12 52 22 53 23 1 1 -2 17 -7 36 -5 19
-11 48 -14 64 -2 17 -15 80 -27 142 -31 161 -34 156 150 234 190 80 446 179
464 179 18 0 40 -26 42 -48 3 -24 16 -122 20 -141 1 -9 8 -55 15 -103 7 -49
15 -88 18 -88 3 0 57 18 121 41 64 23 125 44 136 46 25 7 46 23 41 32 -2 3 -7
31 -10 61 -9 73 -14 118 -20 160 -3 19 -8 64 -12 99 -8 82 -46 166 -83 182
l-28 12 34 56 c28 46 40 94 34 133 0 4 -3 38 -6 75 -4 37 -8 81 -11 97 -3 16
-7 54 -9 85 -3 31 -7 72 -10 91 -2 19 -7 62 -10 94 -7 70 -25 107 -64 136 -54
38 -94 34 -278 -30z m42 -433 c4 -34 9 -71 11 -82 9 -49 6 -102 -7 -123 -8
-13 -42 -32 -84 -48 -38 -14 -79 -30 -90 -34 -11 -5 -76 -31 -145 -58 -69 -27
-172 -69 -228 -92 -102 -42 -104 -42 -122 -24 -10 11 -22 39 -25 64 -4 25 -11
68 -17 95 -6 28 -10 61 -9 74 1 34 27 70 57 81 13 5 44 19 68 30 25 11 48 20
51 20 3 0 31 11 61 25 30 14 59 25 65 25 5 0 24 7 41 16 30 15 212 83 293 109
55 17 71 2 80 -78z"/>
<path d="M16408 20025 c-97 -26 -99 -28 -278 -370 -34 -66 -77 -147 -95 -180
-92 -170 -238 -472 -242 -502 -6 -40 28 -117 61 -138 11 -8 104 -43 206 -79
188 -65 411 -148 465 -171 17 -8 89 -38 160 -69 72 -30 165 -71 208 -90 42
-20 83 -36 90 -36 9 0 158 221 175 260 3 7 -97 54 -268 127 -58 24 -113 49
-122 53 -9 5 -59 25 -110 45 -51 20 -104 40 -118 46 -14 6 -83 33 -155 59 -71
27 -138 51 -148 55 -40 16 -40 41 1 119 l38 74 219 -82 c121 -46 302 -118 403
-161 100 -43 184 -76 186 -74 15 17 166 258 166 265 -1 14 -511 227 -730 304
-36 13 -69 26 -74 31 -4 4 8 37 29 73 32 58 54 77 90 81 39 4 747 -289 955
-395 l37 -19 49 72 c27 40 51 74 54 77 5 4 52 75 73 108 9 13 -78 57 -363 184
-305 135 -812 331 -880 340 -19 3 -56 -1 -82 -7z"/>
</g>
</svg>
